<svg width="480" height="358" viewBox="0 0 480 358" fill="none" xmlns="http://www.w3.org/2000/svg">
<path d="M240.046 166.158C240.046 161.658 234.546 157.658 234.546 157.658L296.046 169.158C296.046 169.158 299.546 171.158 301.046 173.658C302.546 176.158 261.546 291.158 261.546 291.158L227.046 271.658C227.046 271.658 240.046 170.658 240.046 166.158Z" fill="#D9D9D9" fill-opacity="0.5"/>
<path d="M144.981 161.74C143.75 156.643 147.673 151.76 152.916 151.864L234.606 153.481C239.375 153.576 243.002 157.795 242.38 162.523L229.43 260.942C228.92 264.818 225.683 267.758 221.776 267.894L177.568 269.431C173.772 269.563 170.406 267.007 169.514 263.314L144.981 161.74Z" fill="#D9D9D9" fill-opacity="0.5"/>
<path d="M171.546 266.658L229.046 265.158L256.546 284.158H184.046L171.546 266.658Z" fill="#D9D9D9" fill-opacity="0.5"/>
<g filter="url(#filter0_d_2245_1086)">
<path d="M224.401 243.547C227.901 240.047 244.9 239.546 246.9 243.046C248.9 246.546 245.9 255.547 245.9 255.547C245.9 255.547 228.9 259.346 225.9 256.547C222.9 253.748 220.901 247.047 224.401 243.547Z" fill="url(#paint0_linear_2245_1086)"/>
<path d="M236.216 240.771C238.68 240.709 241.093 240.865 243.013 241.254C243.973 241.448 244.807 241.7 245.46 242.01C246.115 242.32 246.578 242.684 246.814 243.096C247.301 243.948 247.488 245.146 247.488 246.477C247.488 247.804 247.301 249.25 247.052 250.591C246.803 251.931 246.491 253.163 246.241 254.06C246.117 254.508 246.008 254.872 245.93 255.124C245.891 255.25 245.86 255.348 245.838 255.414C245.832 255.432 245.827 255.448 245.823 255.461C245.791 255.468 245.746 255.479 245.688 255.491C245.563 255.518 245.379 255.557 245.144 255.606C244.674 255.705 243.998 255.843 243.179 255.999C241.54 256.311 239.323 256.697 237.013 256.997C234.702 257.297 232.302 257.509 230.293 257.472C229.289 257.453 228.386 257.372 227.643 257.21C226.897 257.047 226.325 256.805 225.969 256.474C224.487 255.091 223.246 252.737 222.812 250.293C222.378 247.849 222.753 245.337 224.472 243.618C225.325 242.765 227.019 242.082 229.134 241.598C231.243 241.115 233.753 240.834 236.216 240.771Z" stroke="black" stroke-width="0.2"/>
</g>
<g filter="url(#filter1_d_2245_1086)">
<path d="M222.546 141.658H241.546C241.546 141.658 227.546 162.158 229.046 174.658C230.546 187.158 236.546 222.658 236.546 222.658L224.046 263.158H216.046L229.046 217.158C229.046 217.158 220.046 181.658 219.546 168.158C219.046 154.658 222.546 141.658 222.546 141.658Z" fill="#FFEEC4"/>
</g>
<path d="M195.275 98.8301C209.775 78.3301 212.275 62.3301 222.775 52.3301C233.276 42.3301 250.775 34.8301 254.775 31.3301C258.775 27.8301 311.775 5.33008 303.775 11.8301C295.775 18.3301 306.276 62.8301 309.776 78.3301C313.276 93.8301 309.776 106.33 309.776 117.83C309.776 129.33 296.276 147.33 278.776 154.33C261.276 161.33 228.776 154.33 228.776 154.33C228.776 154.33 180.775 119.33 195.275 98.8301Z" fill="#6F8B41"/>
<path d="M235.319 154.127C268.16 97.1341 267.775 37.8294 296.319 18.127" stroke="#FFEEC4"/>
<path d="M246.275 37.3301L255.275 31.3301L261.775 27.8301V30.3301L261.275 37.8301L260.275 38.8301V35.8301L257.775 43.8301H256.275V40.8301L255.275 45.3301H258.275L256.275 60.3301L251.775 53.3301L252.275 45.3301H253.275L252.775 49.3301L253.775 49.8301L254.275 44.8301V43.3301L252.775 40.3301L253.275 34.8301L251.775 36.3301L248.775 44.3301L247.275 46.8301L245.775 48.3301H247.275L247.775 51.8301L244.275 54.3301L243.775 61.3301L246.775 63.3301L249.775 47.3301L249.275 54.8301L249.775 60.3301L248.775 58.8301L246.775 63.3301L243.775 61.3301L242.775 67.3301H240.775L245.775 84.8301L249.775 94.8301L247.775 78.3301L249.775 76.8301L250.275 83.8301L251.775 74.8301L249.775 64.8301L252.775 68.8301L255.275 76.8301V70.8301H256.275L252.775 64.8301L250.775 62.3301V60.3301L252.775 64.8301L253.275 61.3301L255.275 65.8301L257.275 70.8301V74.8301L261.275 85.3301L253.775 109.83L239.775 69.8301L241.775 46.8301L242.775 50.3301L240.34 63.3301L244.275 54.3301L245.775 50.8301L244.275 50.3301V46.3301L246.775 41.3301L243.775 45.3301L246.275 37.3301Z" fill="#FFEEC4"/>
<path d="M267.775 41.3301L268.275 38.3301L269.275 37.8301L270.275 30.8301L270.775 33.8301L271.775 35.3301L271.275 42.3301L271.775 42.8301L272.775 40.3301L273.275 39.8301L272.775 44.8301L273.775 46.3301L271.775 55.3301L268.775 62.8301L266.275 53.8301L266.775 50.8301L268.275 57.3301L268.775 54.8301V52.3301L269.275 50.8301L269.775 48.8301L268.275 46.3301V54.3301L267.275 50.3301L266.775 48.3301L267.775 41.3301Z" fill="#FFEEC4"/>
<path d="M283.275 23.3301L285.775 20.8301L288.775 19.8301L284.775 23.3301L285.775 24.8301L284.775 28.3301V26.3301L284.275 25.8301L284.775 23.3301H283.275Z" fill="#FFEEC4"/>
<path d="M278.275 31.8301L279.275 28.8301L279.775 30.3301L279.275 32.8301L279.775 36.3301L278.775 38.3301L277.775 40.3301L279.275 34.3301L278.275 31.8301Z" fill="#FFEEC4"/>
<path d="M204.199 90.0661C202.594 102.443 225.312 120.756 237.199 143.066" stroke="#FFEEC4"/>
<path d="M256.391 116.334C281.204 92.4144 301.352 78.8886 304.775 63.3301" stroke="#FFEEC4"/>
<path d="M273.429 57.9706C286.839 41.982 298.122 40.6907 300.275 31.8305" stroke="#FFEEC4"/>
<path d="M251.442 150.147L268.024 159.422C268.024 159.422 245.798 170.479 241.005 182.12C236.212 193.762 224.118 227.673 224.118 227.673L211.528 264.064L204.546 260.158L220.257 219.212C220.257 219.212 229.733 183.836 235.887 171.81C242.041 159.784 251.442 150.147 251.442 150.147Z" fill="#FFEEC4"/>
<g filter="url(#filter2_d_2245_1086)">
<path d="M179.401 239.547C182.901 236.047 199.9 235.546 201.9 239.046C203.9 242.546 200.9 251.547 200.9 251.547C200.9 251.547 183.9 255.346 180.9 252.547C177.9 249.748 175.901 243.047 179.401 239.547Z" fill="url(#paint1_linear_2245_1086)"/>
<path d="M191.216 236.771C193.68 236.709 196.093 236.865 198.013 237.254C198.973 237.448 199.807 237.7 200.46 238.01C201.115 238.32 201.578 238.684 201.814 239.096C202.301 239.948 202.488 241.146 202.488 242.477C202.488 243.804 202.301 245.25 202.052 246.591C201.803 247.931 201.491 249.163 201.241 250.06C201.117 250.508 201.008 250.872 200.93 251.124C200.891 251.25 200.86 251.348 200.838 251.414C200.832 251.432 200.827 251.448 200.823 251.461C200.791 251.468 200.746 251.479 200.688 251.491C200.563 251.518 200.379 251.557 200.144 251.606C199.674 251.705 198.998 251.843 198.179 251.999C196.54 252.311 194.323 252.697 192.013 252.997C189.702 253.297 187.302 253.509 185.293 253.472C184.289 253.453 183.386 253.372 182.643 253.21C181.897 253.047 181.325 252.805 180.969 252.474C179.487 251.091 178.246 248.737 177.812 246.293C177.378 243.849 177.753 241.337 179.472 239.618C180.325 238.765 182.019 238.082 184.134 237.598C186.243 237.115 188.753 236.834 191.216 236.771Z" stroke="black" stroke-width="0.2"/>
</g>
<path d="M233.046 168.658L242.546 171.158C242.546 171.158 224.546 205.158 227.046 213.158L221.546 254.158L212.546 263.158H206.546L215.881 251.658L221.672 207.937C221.672 207.937 219.546 220.658 221.546 208.658C223.546 196.658 233.046 168.658 233.046 168.658Z" fill="#FFEEC4"/>
<path d="M167.679 149.147L151.097 158.422C151.097 158.422 173.323 169.479 178.116 181.12C182.909 192.762 195.003 226.673 195.003 226.673L207.593 263.064L214.575 259.158L198.864 218.212C198.864 218.212 189.388 182.836 183.234 170.81C177.08 158.784 167.679 149.147 167.679 149.147Z" fill="#FFEEC4"/>
<g filter="url(#filter3_d_2245_1086)">
<path d="M192.546 124.658H173.546C173.546 124.658 187.546 145.158 186.046 157.658C184.546 170.158 203.046 196.158 203.046 196.158C203.046 196.158 195.546 215.158 195.546 220.158C195.546 225.158 208.046 265.658 208.046 265.658H220.046C220.046 265.658 205.546 223.158 205.546 220.158C205.546 217.158 212.046 194.158 212.046 194.158C212.046 194.158 195.046 164.658 195.546 151.158C196.046 137.658 192.546 124.658 192.546 124.658Z" fill="#FFEEC4"/>
</g>
<path d="M201.745 103.963C202.417 93.0181 163.701 66.2542 163.701 66.2542C163.701 66.2542 129.997 41.1845 126.594 32.6158C123.191 24.047 69.0647 2.36006 69.0647 2.36006C69.0647 2.36006 69.6743 16.2397 83.353 31.5308C97.0317 46.8219 125.123 93.4196 125.123 93.4196L137.713 129.041C137.713 129.041 175.579 136.53 182.194 141.139C188.809 145.748 201.074 114.909 201.745 103.963Z" fill="#6F8B41"/>
<path d="M160.827 91.8597L161.972 78.3381L158.676 82.2543L156.883 82.4412L153.671 86.4011L155.222 91.1716L147.036 93.6455L158.542 99.6966L160.827 91.8597Z" fill="#FFEEC4"/>
<path d="M180.63 118.657L181.774 105.135L178.479 109.052L177.449 93.8221L173.473 113.198L175.025 117.969L166.839 120.443L178.345 126.494L180.63 118.657Z" fill="#FFEEC4"/>
<path d="M144.559 53.797L130.682 40.6643L130.765 43.6654L141.833 52.9711L143.815 59.5237L149.102 66.0855L143.283 54.7331L144.559 53.797Z" fill="#FFEEC4"/>
<path d="M183.613 142.258C187.218 130.031 180.672 122.068 180.672 122.068C180.672 122.068 155.162 90.0098 145.03 82.4214C134.897 74.8329 83.3539 31.528 83.3539 31.528L122.7 91.5803C122.7 91.5803 133.469 122.665 137.715 129.038C141.96 135.41 180.007 154.485 183.613 142.258Z" fill="#24331C"/>
<path d="M125.421 78.8877C125.47 74.5685 125.512 72.8929 125.581 71.0631L123.182 68.1064C124.862 71.8681 125.421 74.075 123.86 78.632L121.674 87.086L124.001 82.6607L124.909 82.0083L124.49 80.6578L125.421 78.8877Z" fill="#6F8B41"/>
<path d="M135.786 86.0345L133.947 88.4569L134.76 81.5404L131.754 75.44L134.085 81.7502L132.875 86.1984L131.57 84.3824L129.384 92.8364L133.085 86.8737L131.2 91.5317L133.226 90.9023L135.786 86.0345Z" fill="#6F8B41"/>
<path d="M152.16 94.6451C150.954 110.91 148.201 118.915 140.668 131.536L141.995 132.234C147.846 120.882 151.052 110.181 152.16 94.6451Z" fill="#6F8B41"/>
<path d="M117.498 61.7286L105.641 50.9737L114.983 64.3609L117.639 65.7573L120.156 73.8605L117.498 61.7286Z" fill="#6F8B41"/>
<path d="M123.841 90.4865L104.923 64.1545L123.516 95.4002C123.516 95.4002 135.078 126.119 137.15 128.557C139.222 130.995 140.925 132.416 145.07 134.982L160.116 142.895L167.334 150.08L171.828 149.054L172.133 145.825L141.575 130.884L123.841 90.4865Z" fill="#6F8B41"/>
<path d="M106.011 43.823L100.56 37.0016L109.037 38.0701L104.425 33.9497L99.0684 33.3925L89.1653 14.6261L83.6681 10.0402L70.1593 3.50074L77.6595 8.575L74.7257 9.85673L69.9037 5.06107L71.3952 8.67013L74.7257 9.85673L77.6595 8.575L80.5245 10.6467L87.7919 16.1635L92.5909 22.0769L98.8357 33.835L104.379 36.1853L98.5571 36.5132L101.189 39.0274L93.0598 31.9273L91.3126 29.8786L91.1257 28.0855L90.4963 26.0597L89.1687 25.3615L87.4674 21.0772L80.4098 16.2357L83.2519 19.4251L87.8641 23.5455L89.1687 25.3615L90.2407 27.62L82.0882 21.6378L88.8901 28.0396L91.3126 29.8786L93.0598 31.9273L92.1518 32.5796L107.247 48.9924L106.011 43.823Z" fill="#FFEEC4"/>
<g filter="url(#filter4_d_2245_1086)">
<path d="M200.547 257.36C204.047 253.86 221.046 253.359 223.046 256.859C225.046 260.359 222.046 269.36 222.046 269.36C222.046 269.36 205.046 273.158 202.046 270.36C199.046 267.561 197.047 260.86 200.547 257.36Z" fill="url(#paint2_linear_2245_1086)"/>
<path d="M212.362 254.584C214.825 254.522 217.239 254.678 219.159 255.066C220.119 255.261 220.953 255.513 221.606 255.822C222.261 256.133 222.724 256.496 222.959 256.908C223.447 257.761 223.633 258.959 223.633 260.289C223.633 261.616 223.447 263.063 223.198 264.403C222.948 265.743 222.637 266.975 222.387 267.872C222.263 268.32 222.154 268.684 222.076 268.937C222.037 269.062 222.005 269.16 221.984 269.227C221.978 269.244 221.973 269.26 221.968 269.273C221.936 269.28 221.891 269.291 221.833 269.304C221.709 269.331 221.525 269.37 221.29 269.419C220.819 269.517 220.144 269.655 219.325 269.812C217.685 270.124 215.468 270.51 213.159 270.81C210.848 271.109 208.447 271.321 206.439 271.284C205.435 271.266 204.532 271.184 203.789 271.022C203.043 270.86 202.47 270.618 202.115 270.286C200.633 268.904 199.392 266.55 198.958 264.105C198.523 261.661 198.899 259.149 200.618 257.431C201.471 256.577 203.165 255.894 205.28 255.41C207.389 254.927 209.898 254.646 212.362 254.584Z" stroke="black" stroke-width="0.2"/>
</g>
<g filter="url(#filter5_d_2245_1086)">
<path d="M219.879 258.455C222.395 256.179 234.614 255.853 236.052 258.129C237.49 260.405 235.333 266.257 235.333 266.257C235.333 266.257 223.114 268.727 220.957 266.907C218.801 265.088 217.363 260.73 219.879 258.455Z" fill="url(#paint3_linear_2245_1086)"/>
<path d="M228.372 256.685C230.142 256.644 231.876 256.746 233.254 256.998C233.944 257.124 234.541 257.288 235.008 257.488C235.478 257.69 235.803 257.924 235.967 258.183C236.311 258.728 236.447 259.498 236.447 260.359C236.447 261.219 236.313 262.156 236.134 263.026C235.955 263.896 235.731 264.695 235.552 265.277C235.463 265.568 235.384 265.805 235.328 265.969C235.3 266.051 235.278 266.114 235.263 266.157C235.261 266.162 235.259 266.166 235.258 266.17C235.237 266.174 235.209 266.18 235.176 266.187C235.086 266.204 234.954 266.23 234.785 266.262C234.448 266.326 233.962 266.414 233.373 266.516C232.195 266.719 230.602 266.97 228.943 267.165C227.282 267.36 225.557 267.498 224.115 267.474C223.393 267.462 222.746 267.409 222.213 267.304C221.678 267.198 221.272 267.042 221.022 266.831C219.962 265.937 219.074 264.414 218.764 262.833C218.454 261.253 218.723 259.635 219.947 258.528C220.248 258.256 220.701 258.007 221.274 257.787C221.845 257.567 222.528 257.378 223.285 257.222C224.8 256.908 226.603 256.725 228.372 256.685Z" stroke="black" stroke-width="0.2"/>
</g>
<g filter="url(#filter6_d_2245_1086)">
<path d="M182.953 251.537C185.609 249.261 198.507 248.935 200.025 251.211C201.542 253.487 199.266 259.339 199.266 259.339C199.266 259.339 186.367 261.809 184.091 259.989C181.815 258.17 180.298 253.812 182.953 251.537Z" fill="url(#paint4_linear_2245_1086)"/>
<path d="M191.918 249.767C193.787 249.726 195.618 249.828 197.073 250.08C197.802 250.206 198.433 250.371 198.927 250.571C199.424 250.773 199.769 251.007 199.942 251.267C200.305 251.811 200.447 252.58 200.447 253.441C200.447 254.3 200.305 255.237 200.116 256.107C199.928 256.977 199.691 257.776 199.502 258.358C199.408 258.649 199.326 258.885 199.267 259.049C199.237 259.13 199.214 259.194 199.198 259.237C199.196 259.242 199.193 259.247 199.192 259.251C199.169 259.255 199.138 259.262 199.102 259.269C199.007 259.286 198.868 259.311 198.69 259.343C198.333 259.407 197.82 259.496 197.198 259.598C195.955 259.801 194.273 260.052 192.521 260.247C190.768 260.442 188.947 260.58 187.424 260.556C186.663 260.544 185.978 260.491 185.415 260.386C184.85 260.28 184.419 260.123 184.154 259.911C183.035 259.017 182.098 257.494 181.771 255.914C181.444 254.336 181.727 252.719 183.019 251.612C183.338 251.339 183.817 251.09 184.421 250.87C185.025 250.65 185.747 250.461 186.547 250.304C188.147 249.99 190.05 249.807 191.918 249.767Z" stroke="black" stroke-width="0.2"/>
</g>
<g filter="url(#filter7_d_2245_1086)">
<path d="M187.401 252.547C190.901 249.047 207.9 248.546 209.9 252.046C211.9 255.546 208.9 264.547 208.9 264.547C208.9 264.547 191.9 268.346 188.9 265.547C185.9 262.748 183.901 256.047 187.401 252.547Z" fill="url(#paint5_linear_2245_1086)"/>
<path d="M199.216 249.771C201.68 249.709 204.093 249.865 206.013 250.254C206.973 250.448 207.807 250.7 208.46 251.01C209.115 251.32 209.578 251.684 209.814 252.096C210.301 252.948 210.488 254.146 210.488 255.477C210.488 256.804 210.301 258.25 210.052 259.591C209.803 260.931 209.491 262.163 209.241 263.06C209.117 263.508 209.008 263.872 208.93 264.124C208.891 264.25 208.86 264.348 208.838 264.414C208.832 264.432 208.827 264.448 208.823 264.461C208.791 264.468 208.746 264.479 208.688 264.491C208.563 264.518 208.379 264.557 208.144 264.606C207.674 264.705 206.998 264.843 206.179 264.999C204.54 265.311 202.323 265.697 200.013 265.997C197.702 266.297 195.302 266.509 193.293 266.472C192.289 266.453 191.386 266.372 190.643 266.21C189.897 266.047 189.325 265.805 188.969 265.474C187.487 264.091 186.246 261.737 185.812 259.293C185.378 256.849 185.753 254.337 187.472 252.618C188.325 251.765 190.019 251.082 192.134 250.598C194.243 250.115 196.753 249.834 199.216 249.771Z" stroke="black" stroke-width="0.2"/>
</g>
<g filter="url(#filter8_d_2245_1086)">
<path d="M199.401 247.547C202.901 244.047 219.9 243.546 221.9 247.046C223.9 250.546 220.9 259.547 220.9 259.547C220.9 259.547 203.9 263.346 200.9 260.547C197.9 257.748 195.901 251.047 199.401 247.547Z" fill="url(#paint6_linear_2245_1086)"/>
<path d="M211.216 244.771C213.68 244.709 216.093 244.865 218.013 245.254C218.973 245.448 219.807 245.7 220.46 246.01C221.115 246.32 221.578 246.684 221.814 247.096C222.301 247.948 222.488 249.146 222.488 250.477C222.488 251.804 222.301 253.25 222.052 254.591C221.803 255.931 221.491 257.163 221.241 258.06C221.117 258.508 221.008 258.872 220.93 259.124C220.891 259.25 220.86 259.348 220.838 259.414C220.832 259.432 220.827 259.448 220.823 259.461C220.791 259.468 220.746 259.479 220.688 259.491C220.563 259.518 220.379 259.557 220.144 259.606C219.674 259.705 218.998 259.843 218.179 259.999C216.54 260.311 214.323 260.697 212.013 260.997C209.702 261.297 207.302 261.509 205.293 261.472C204.289 261.453 203.386 261.372 202.643 261.21C201.897 261.047 201.325 260.805 200.969 260.474C199.487 259.091 198.246 256.737 197.812 254.293C197.378 251.849 197.753 249.337 199.472 247.618C200.325 246.765 202.019 246.082 204.134 245.598C206.243 245.115 208.753 244.834 211.216 244.771Z" stroke="black" stroke-width="0.2"/>
</g>
<g filter="url(#filter9_d_2245_1086)">
<path d="M173.921 259.796C176.437 257.107 188.656 256.722 190.094 259.411C191.531 262.101 189.375 269.017 189.375 269.017C189.375 269.017 177.155 271.936 174.999 269.786C172.843 267.635 171.405 262.486 173.921 259.796Z" fill="url(#paint7_linear_2245_1086)"/>
<path d="M182.414 257.687C184.183 257.639 185.916 257.759 187.293 258.057C187.981 258.206 188.578 258.398 189.044 258.635C189.512 258.872 189.84 259.147 190.006 259.458C190.354 260.109 190.488 261.026 190.488 262.047C190.488 263.066 190.354 264.176 190.175 265.206C189.996 266.235 189.772 267.181 189.593 267.869C189.503 268.213 189.425 268.494 189.369 268.688C189.341 268.784 189.318 268.859 189.303 268.91C189.3 268.918 189.297 268.926 189.295 268.933C189.274 268.938 189.247 268.945 189.215 268.952C189.125 268.973 188.993 269.003 188.824 269.041C188.486 269.117 188.001 269.222 187.412 269.342C186.234 269.582 184.641 269.878 182.981 270.108C181.321 270.339 179.598 270.501 178.157 270.473C177.437 270.458 176.79 270.396 176.259 270.272C175.726 270.148 175.32 269.964 175.069 269.715C174.009 268.657 173.118 266.852 172.807 264.977C172.495 263.101 172.766 261.177 173.994 259.864C174.602 259.215 175.812 258.692 177.331 258.32C178.845 257.95 180.645 257.734 182.414 257.687Z" stroke="black" stroke-width="0.2"/>
</g>
<g filter="url(#filter10_d_2245_1086)">
<path d="M186.401 266.547C189.901 263.047 206.9 262.546 208.9 266.046C210.9 269.546 207.9 278.547 207.9 278.547C207.9 278.547 190.9 282.346 187.9 279.547C184.9 276.748 182.901 270.047 186.401 266.547Z" fill="url(#paint8_linear_2245_1086)"/>
<path d="M198.216 263.771C200.68 263.709 203.093 263.865 205.013 264.254C205.973 264.448 206.807 264.7 207.46 265.01C208.115 265.32 208.578 265.684 208.814 266.096C209.301 266.948 209.488 268.146 209.488 269.477C209.488 270.804 209.301 272.25 209.052 273.591C208.803 274.931 208.491 276.163 208.241 277.06C208.117 277.508 208.008 277.872 207.93 278.124C207.891 278.25 207.86 278.348 207.838 278.414C207.832 278.432 207.827 278.448 207.823 278.461C207.791 278.468 207.746 278.479 207.688 278.491C207.563 278.518 207.379 278.557 207.144 278.606C206.674 278.705 205.998 278.843 205.179 278.999C203.54 279.311 201.323 279.697 199.013 279.997C196.702 280.297 194.302 280.509 192.293 280.472C191.289 280.453 190.386 280.372 189.643 280.21C188.897 280.047 188.325 279.805 187.969 279.474C186.487 278.091 185.246 275.737 184.812 273.293C184.378 270.849 184.753 268.337 186.472 266.618C187.325 265.765 189.019 265.082 191.134 264.598C193.243 264.115 195.753 263.834 198.216 263.771Z" stroke="black" stroke-width="0.2"/>
</g>
<g filter="url(#filter11_g_2245_1086)">
<path d="M158.046 201.658C158.046 201.658 174.546 201.658 182.546 201.158C190.546 200.658 196.046 201.658 199.546 201.658C203.046 201.658 219.546 200.658 222.546 200.658C225.546 200.658 242.546 200.658 242.546 200.658C242.546 200.658 248.546 202.158 250.546 203.658C252.546 205.158 260.046 211.658 261.546 212.158C263.046 212.658 277.546 219.658 277.546 219.658C277.546 219.658 254.546 278.658 251.546 281.658C248.546 284.658 201.046 286.658 195.546 284.658C190.046 282.658 181.546 279.158 178.046 275.158C174.546 271.158 158.046 201.658 158.046 201.658Z" fill="#74E8FF" fill-opacity="0.5"/>
</g>
<path d="M142.858 166.158C142.085 162.62 142.516 160.936 146.858 157.658L167.358 171.158C167.358 171.158 164.858 174.158 164.358 177.158C163.858 180.158 182.358 291.658 182.358 291.658L168.358 271.658L142.858 166.158Z" fill="#D9D9D9" fill-opacity="0.5"/>
<path d="M163.732 178.198C163.104 173.408 166.832 169.158 171.664 169.158H293.331C298.825 169.158 302.684 174.568 300.896 179.762L264.404 285.762C263.292 288.991 260.254 291.158 256.839 291.158H185.565C181.549 291.158 178.156 288.181 177.633 284.198L163.732 178.198Z" fill="#D9D9D9" fill-opacity="0.5"/>
<path d="M313.052 76.9959C345.052 85.9959 363.053 94.9967 373.052 105.496C383.052 115.996 387.052 147.496 379.052 141.996C371.052 136.496 301.552 185.496 288.552 185.996C275.552 186.496 264.346 184.496 253.052 176.996C241.758 169.496 253.052 153.496 253.052 153.496C253.052 153.496 222.572 155.492 226.812 124.995C231.052 94.4973 281.052 67.9959 313.052 76.9959Z" fill="#6F8B41"/>
<path d="M304.052 134.996L307.552 135.496V134.496L313.552 131.996L324.052 132.496L321.552 134.496L316.052 133.496L314.052 132.996L307.552 134.496L311.052 135.996L316.052 135.496L316.552 133.996L318.052 134.496H316.552L317.052 135.496L322.552 138.496L317.052 140.496L304.052 136.996L301.052 139.496L303.052 140.496L314.052 142.996L312.552 143.496L301.052 139.496L304.052 136.996L291.552 138.496L304.052 134.996Z" fill="#F6E6C0"/>
<path d="M271.078 133.142L273.928 131.049L273.227 130.335L275.762 124.349L283.609 117.356L283.224 120.534L278.597 123.67L276.819 124.713L273.227 130.335L276.777 128.956L279.997 125.098L279.304 123.677L280.725 122.984L279.654 124.034L280.711 124.398L286.739 122.69L284.212 127.969L272.478 134.57L272.086 138.456L274.215 137.77L283.82 131.854L283.098 133.261L272.086 138.456L272.478 134.57L271.078 142.498L260.552 147.995L264.602 131.853L266.052 140.996L271.078 133.142Z" fill="#F6E6C0"/>
<path d="M272.513 181.918L271.223 182.834L267.837 182.705L266.996 182.322L272.513 181.918ZM279.005 168.952L277.2 171.596L271.647 172.248L269.589 172.354L263.811 175.689L267.597 176.101L272.232 174.16L272.272 172.58L273.852 172.62L272.417 173.058L273.189 173.868L279.325 175.129L274.65 178.65L261.195 179.104L260.868 179.529L258.458 178.431L260.61 177.191L264.103 176.646L263.811 175.689L268.818 171.545L279.005 168.952ZM254.299 176.537L252.932 175.912L255.456 173.062L254.299 176.537Z" fill="#F6E6C0"/>
<path d="M253.045 102.352L250.5 104.807L251.289 105.421L249.576 111.691L242.732 119.669L242.689 116.468L246.857 112.743L248.48 111.471L251.289 105.421L247.956 107.261L245.279 111.514L246.155 112.83L244.839 113.706L245.761 112.523L244.665 112.303L238.919 114.8L240.719 109.232L251.467 101.123L251.337 97.2205L249.319 98.1844L240.589 105.329L241.116 103.838L251.337 97.2205L251.467 101.123L251.796 93.0799L261.495 86.2276L259.635 102.766L256.979 93.8976L253.045 102.352Z" fill="#F6E6C0"/>
<path d="M356.872 141.959L353.463 141.02L353.337 142.012L347.068 143.732L336.716 141.908L339.449 140.24L344.778 141.928L346.699 142.677L353.337 142.012L350.054 140.081L345.031 139.944L344.346 141.369L342.921 140.683L344.409 140.873L344.039 139.818L338.963 136.146L344.052 138.496L340.552 134.996L344.039 136.496L340.808 134.858L343.052 133.496L344.672 134.858L357.125 139.975L364.214 136.161L375.052 141.015C370.409 142.324 367.046 143.87 359.873 147.841L366.151 141.036L356.872 141.959Z" fill="#F6E6C0"/>
<path d="M253.456 152.419C253.456 152.419 310.052 126.495 335.052 126.495C360.052 126.495 377.052 127.995 377.052 127.995" stroke="#FFEEC4" stroke-linecap="round"/>
<path d="M324.839 142.098L339.314 146.03L339.052 146.995L337.052 145.995L336.552 146.995L339.052 147.495L338.552 148.495L332.052 145.495L325.052 143.994L322.052 141.495L324.839 142.098Z" fill="#F6E6C0"/>
<path d="M334.052 93.4961L349.052 89.9961L356.052 92.9961L364.052 97.9961L373.552 106.496C370.135 103.588 365.052 106.996 364.052 107.996C363.052 108.996 355.552 110.996 355.552 110.996C355.552 110.996 358.058 110.287 359.552 108.496C361.046 106.705 358.552 105.496 358.552 105.496L351.552 113.496L357.552 103.996L362.052 102.996C362.052 102.996 364.052 101.996 362.052 100.496C360.052 98.9961 355.052 100.496 355.052 100.496H351.052C351.052 100.496 353.052 100.496 353.052 99.4961C353.052 98.4961 351.052 97.4961 351.052 97.4961L341.052 101.496L336.552 106.496C336.552 106.496 336.552 110.496 336.052 111.996C335.552 113.496 332.052 115.496 332.052 115.496L334.052 113.496L335.552 111.496L336.552 106.496L338.052 103.496L337.052 102.996L334.052 106.496L331.552 109.496L332.552 105.996H331.052V108.496H330.052L330.552 105.496L339.052 99.4961L340.552 99.9961L337.052 102.996L338.052 103.496L340.552 99.9961L356.052 92.9961L348.052 91.9961L334.052 93.4961Z" fill="#FFEEC4"/>
<path d="M290.603 133.776C294.105 96.6347 299.974 78.9302 315.052 78.4948" stroke="#FFEEC4"/>
<path d="M270.052 147.995C277.856 147.29 294.24 154.106 330.552 163.495" stroke="#FFEEC4"/>
<path d="M236.052 106.996C233.515 137.141 243.628 139.638 256.538 148.88" stroke="#FFEEC4"/>
<path d="M226.322 116.492C230.822 106.492 277.546 100.825 277.546 100.825C277.546 100.825 319.046 94.3252 326.046 88.3252C333.046 82.3252 391.046 88.3247 391.046 88.3247C391.046 88.3247 384.046 100.325 364.822 107.492C345.598 114.659 299.046 142.825 299.046 142.825L271.322 168.492C271.322 168.492 234.322 157.495 226.322 158.495C218.322 159.495 221.822 126.492 226.322 116.492Z" fill="#6F8B41"/>
<path d="M268.171 124.824L273.452 112.324L274.546 117.324L276.046 118.324L277.046 123.324L273.452 126.824L279.546 132.824H266.546L268.171 124.824Z" fill="#FFEEC4"/>
<path d="M238.171 139.324L243.452 126.824L244.546 131.824L252.546 118.824L247.046 137.824L243.452 141.324L249.546 147.324H236.546L238.171 139.324Z" fill="#FFEEC4"/>
<path d="M300.287 98.7086L318.681 93.5444L317.211 96.162L303.084 99.2463L298.279 104.123L290.546 107.47L300.98 100.131L300.287 98.7086Z" fill="#FFEEC4"/>
<path d="M224.546 158.824C227.046 146.324 236.546 142.324 236.546 142.324C236.546 142.324 274.046 125.824 286.546 123.824C299.046 121.824 364.823 107.488 364.823 107.488L302.046 142.324C302.046 142.324 278.046 164.824 271.322 168.488C264.599 172.151 222.046 171.324 224.546 158.824Z" fill="#24331C"/>
<path d="M305.546 129.824C307.513 125.979 308.256 124.476 309.046 122.824L312.546 121.324C309.308 123.872 307.786 125.565 307.046 130.324L305.046 138.824V133.824L304.546 132.824L305.546 131.824V129.824Z" fill="#6F8B41"/>
<path d="M293.046 131.324L293.546 134.324L296.046 127.824L301.546 123.824L296.546 128.324L295.546 132.824L297.546 131.824L295.546 140.324L295.046 133.324L294.546 138.324L293.046 136.824V131.324Z" fill="#6F8B41"/>
<path d="M274.546 131.324C268.042 146.281 266.753 154.647 267.546 169.324H266.046C266.152 156.554 268.295 145.59 274.546 131.324Z" fill="#6F8B41"/>
<path d="M320.546 118.324L336.046 114.324L321.546 121.824H318.546L312.546 127.824L320.546 118.324Z" fill="#6F8B41"/>
<path d="M301.546 140.824L330.546 126.324L299.546 145.324C299.546 145.324 275.015 167.131 272.046 168.324C269.077 169.517 266.909 169.983 262.046 170.324H245.046L235.313 173.324L231.813 170.324L233.046 167.324L267.046 168.324L301.546 140.824Z" fill="#6F8B41"/>
<path d="M339.046 107.824L347.046 104.324L339.046 101.324L345.046 99.8242L350.046 101.824L367.546 89.8242L374.546 88.3242L389.546 88.8242L380.546 89.8242L382.546 92.3242L389.046 90.3242L386.046 92.8242L382.546 92.3242L380.546 89.8242L377.046 90.3242L368.046 91.8242L361.046 94.8242L350.046 102.324L344.046 101.824L349.046 104.824L345.546 105.824L356.046 103.324L358.546 102.324L359.546 100.824L361.046 99.3242H362.546L366.046 96.3242L374.546 95.3242L370.546 96.8242L364.546 98.3242L362.546 99.3242L360.546 100.824L370.546 99.3242L361.546 101.824L358.546 102.324L356.046 103.324L356.546 104.324L335.546 111.824L339.046 107.824Z" fill="#FFEEC4"/>
<path d="M167.688 111.284C147.394 111.4 135.636 105.649 124.15 107.977C112.664 110.304 99.5938 118.426 95.4232 119.456C91.2527 120.486 51.8107 145.183 59.8205 142.892C67.8303 140.601 92.4514 168.158 101.1 177.652C109.749 187.147 119.651 190.614 127.27 195.938C134.889 201.262 153.063 200.651 165.802 192.297C178.541 183.943 188.949 159.171 188.949 159.171C188.949 159.171 187.982 111.168 167.688 111.284Z" fill="#6F8B41"/>
<path d="M185.786 163.412C132.824 158.786 93.7117 131.077 67.4447 140.867" stroke="#FFEEC4" stroke-width="0.80823"/>
<path d="M103.333 116.601L95.1917 119.786L89.8638 122.472L91.5201 123.629L96.7205 126.77L97.8459 126.57L95.8584 125.182L102.316 127.229L103.01 126.235L101.023 124.846L104.467 126.267L103.078 128.254L113.942 133.873L111.387 127.651L105.856 124.279L105.393 124.942L108.274 126.462L108.143 127.356L104.599 125.373L103.605 124.678L102.312 122.296L98.4364 120.081L100.125 119.782L106.813 121.498L109.164 121.661L110.852 121.362L110.158 122.355L112.245 124.307L115.522 123.146L120.391 126.055L120.327 128.968L108.338 123.549L113.538 126.69L116.951 129.567L116.42 128.21L120.327 128.968L120.391 126.055L124.829 128.17L125.755 126.845L135.034 138.259L139.808 145.538L129.802 136.575L127.882 137.205L132.289 140.777L125.631 137.604L119.932 131.65L121.193 135.489L125.336 140.849L121.361 138.072L120.898 138.734L118.543 133.638L117.813 131.155L116.488 130.229L118.543 133.638L115.993 132.349L118.049 135.757L120.435 139.397L123.085 141.248L128.19 148.759L147.894 155.132L127.874 127.34L111.71 118.017L113.566 120.3L123.306 124.705L115.522 123.146L112.509 122.519L112.872 121.294L110.222 119.442L105.752 118.784L109.791 118.648L103.333 116.601Z" fill="#FFEEC4"/>
<path d="M96.03 132.696L93.811 131.639L93.0168 132.07L87.9163 129.492L89.6724 131.212L90.2032 132.569L95.0723 135.478L95.1721 136.041L93.0529 135.546L92.4901 135.646L96.0342 137.629L96.565 138.986L103.454 141.827L109.811 143.312L105.006 137.489L102.787 136.432L106.399 140.435L104.511 139.608L102.855 138.451L101.63 138.088L100.073 137.493L99.1112 135.342L104.411 139.046L102.224 136.531L101.131 135.274L96.03 132.696Z" fill="#FFEEC4"/>
<path d="M76.9297 134.634L74.116 135.133L72.0647 136.658L76.2353 135.628L76.7661 136.985L79.5479 137.942L78.2228 137.017L78.123 136.454L76.2353 135.628L76.9297 134.634Z" fill="#FFEEC4"/>
<path d="M84.8754 135.255L82.4249 134.529L83.1872 135.555L85.075 136.381L87.1623 138.332L88.9503 138.596L90.7383 138.859L86.0688 137.075L84.8754 135.255Z" fill="#FFEEC4"/>
<path d="M157.75 113.138C166.693 117.803 168.309 141.332 177.587 159.536" stroke="#FFEEC4" stroke-width="0.80823"/>
<path d="M150.992 159.877C123.658 165.243 105.37 172.33 93.4773 167.395" stroke="#FFEEC4" stroke-width="0.80823"/>
<path d="M104.438 144.146C87.6371 145.629 81.5583 152.507 74.6915 149.832" stroke="#FFEEC4" stroke-width="0.80823"/>
<path d="M448.855 264.865L418.014 338.166L266.026 306.185H266.027C259.303 304.292 256.178 303.722 253.848 303.851C252.681 303.915 251.716 304.155 250.605 304.487C249.518 304.813 248.292 305.224 246.59 305.654C246.544 305.07 246.348 304.573 246.11 304.125C245.983 303.886 245.843 303.659 245.711 303.44C245.578 303.221 245.451 303.011 245.346 302.8C245.134 302.379 245.01 301.965 245.086 301.501C245.161 301.038 245.438 300.509 246.061 299.862L342.771 252.884L448.855 264.865Z" fill="white" stroke="black" stroke-width="0.2"/>
<path d="M349.5 258.281L416.5 265.748L410.5 272.281L335.5 265.748L349.5 258.281Z" fill="#D9D9D9"/>
<path d="M327.5 270.781L432.5 279.781L429 282.781L319.5 274.281L327.5 270.781Z" fill="#D9D9D9"/>
<path d="M317.5 276.781L433 285.781L430 289.281L309.5 280.281L317.5 276.781Z" fill="#D9D9D9"/>
<path d="M306.5 281.281L411.5 290.281L409 292.781L298.5 284.781L306.5 281.281Z" fill="#D9D9D9"/>
<path d="M456.026 272.66L415.238 340.963L329.852 311.345L287.121 296.522L287.111 296.518L287.1 296.518C281.293 295.795 276.398 295.265 272.291 294.655C268.184 294.045 264.875 293.356 262.242 292.319C259.612 291.283 257.66 289.902 256.262 287.907C254.885 285.943 254.04 283.375 253.62 279.937C255.557 280.709 257.166 280.999 258.603 280.913C260.08 280.826 261.368 280.342 262.638 279.593C263.906 278.846 265.159 277.83 266.563 276.677C267.966 275.525 269.522 274.233 271.406 272.919L298.398 263.96L352.38 246.04L456.026 272.66Z" fill="white" stroke="black" stroke-width="0.2"/>
<path d="M358.546 252.353L423.862 269.044L417.013 274.682L343.646 257.805L358.546 252.353Z" fill="#D9D9D9"/>
<path d="M335.025 261.68L437.76 285.163L433.878 287.648L326.616 264.036L335.025 261.68Z" fill="#D9D9D9"/>
<path d="M324.289 266.235L437.423 291.175L433.966 294.224L315.88 268.591L324.289 266.235Z" fill="#D9D9D9"/>
<path d="M312.771 269.165L415.506 292.647L412.683 294.776L304.362 271.521L312.771 269.165Z" fill="#D9D9D9"/>
<path d="M453.098 252.866L424.082 326.939L245.521 294.774C252.559 293.307 256.721 291.564 264.045 287.871L264.047 287.87L346.485 243.63L453.098 252.866Z" fill="white" stroke="black" stroke-width="0.2"/>
<path d="M353.606 248.846L420.776 254.583L414.946 261.268L339.803 256.671L353.606 248.846Z" fill="#D9D9D9"/>
<path d="M331.935 261.909L437.132 268.198L433.711 271.288L324.028 265.614L331.935 261.909Z" fill="#D9D9D9"/>
<path d="M322.093 268.165L437.787 274.184L434.878 277.76L314.186 271.87L322.093 268.165Z" fill="#D9D9D9"/>
<path d="M311.213 272.946L416.41 279.236L413.975 281.799L303.306 276.651L311.213 272.946Z" fill="#D9D9D9"/>
<path d="M452.098 255.866L423.082 329.94L245.136 299.597C245.174 299.579 245.216 299.561 245.26 299.541C245.523 299.417 245.899 299.239 246.346 299.018C247.241 298.578 248.424 297.969 249.576 297.298C250.728 296.627 251.853 295.891 252.63 295.194C253.017 294.846 253.324 294.503 253.501 294.178C253.679 293.852 253.735 293.529 253.589 293.238C253.536 293.132 253.536 293.053 253.562 292.991C253.59 292.926 253.656 292.859 253.775 292.796C254.016 292.67 254.425 292.585 254.962 292.538C256.031 292.445 257.556 292.507 259.117 292.632C260.678 292.757 262.27 292.944 263.472 293.1C264.073 293.178 264.576 293.248 264.93 293.299C265.106 293.324 265.245 293.345 265.339 293.359C265.387 293.366 265.423 293.372 265.447 293.376C265.46 293.377 265.47 293.379 265.476 293.38C265.479 293.38 265.481 293.38 265.483 293.38L265.485 293.381L265.549 293.195L260.71 290.503L345.485 246.63L452.098 255.866Z" fill="white" stroke="black" stroke-width="0.2"/>
<path d="M352.606 251.846L419.776 257.583L413.946 264.268L338.803 259.671L352.606 251.846Z" fill="#D9D9D9"/>
<path d="M330.935 264.909L436.132 271.198L432.711 274.288L323.028 268.614L330.935 264.909Z" fill="#D9D9D9"/>
<path d="M321.093 271.165L436.787 277.184L433.878 280.76L313.186 274.87L321.093 271.165Z" fill="#D9D9D9"/>
<path d="M310.213 275.946L415.41 282.236L412.975 284.799L302.306 279.651L310.213 275.946Z" fill="#D9D9D9"/>
<path d="M442.402 249.866L413.385 323.942L298.832 306.686L269.857 295.197C266.089 291.748 263.299 288.947 261.04 285.732C258.803 282.55 257.084 278.958 255.454 273.923C256.738 274.234 257.517 274.629 258.039 275.015C258.588 275.422 258.849 275.81 259.14 276.108C259.284 276.256 259.435 276.38 259.628 276.456C259.821 276.533 260.047 276.559 260.338 276.526C260.913 276.46 261.762 276.159 263.155 275.527L263.156 275.528C267.514 273.898 270.914 272.625 274.315 271.353C277.715 270.081 281.115 268.809 285.473 267.179L285.482 267.176L285.49 267.171L308.851 252.87L316.327 249.383L323.304 249.383L323.335 249.384L323.361 249.365L335.797 240.632L442.402 249.866Z" fill="white" stroke="black" stroke-width="0.2"/>
<path d="M343.606 245.846L410.776 251.583L404.946 258.268L329.803 253.671L343.606 245.846Z" fill="#D9D9D9"/>
<path d="M319 257.783L427.132 265.199L423.711 268.288L314.028 262.614L319 257.783Z" fill="#D9D9D9"/>
<path d="M312.093 265.165L427.787 271.184L424.878 274.76L304.186 268.87L312.093 265.165Z" fill="#D9D9D9"/>
<path d="M301.213 269.946L406.41 276.236L403.975 278.799L293.306 273.651L301.213 269.946Z" fill="#D9D9D9"/>
<path d="M474.098 254.866L445.082 328.94L267.092 298.589L316.034 270.377L324.019 268.881L324.032 268.877L324.045 268.871L330.045 265.872L330.048 265.87L367.485 245.63L474.098 254.866Z" fill="white" stroke="black" stroke-width="0.2"/>
<path d="M374.606 250.846L441.776 256.583L435.946 263.268L360.803 258.671L374.606 250.846Z" fill="#D9D9D9"/>
<path d="M352.935 263.909L458.132 270.198L454.711 273.288L345.028 267.614L352.935 263.909Z" fill="#D9D9D9"/>
<path d="M343.093 270.165L458.787 276.184L455.878 279.76L335.186 273.87L343.093 270.165Z" fill="#D9D9D9"/>
<path d="M332.213 274.946L437.41 281.236L434.975 283.799L324.306 278.651L328.5 275.781L332.213 274.946Z" fill="#D9D9D9"/>
<path d="M420.479 274.879L420.486 274.881L420.495 274.882L439.477 275.879L449.721 279.836L449.73 279.84L449.74 279.841L478.862 284.779L442.428 355.497L366.055 333.693L360.574 327.714L360.549 327.686L360.511 327.682L342.521 325.683L268.501 307.111L373.753 264.691L420.479 274.879Z" fill="white" stroke="black" stroke-width="0.2"/>
<path d="M380.303 270.607L419 278.28L435 279.78L446.535 283.179L440.053 289.234L422.5 285.28L406 284.28L365.773 276.98L380.303 270.607Z" fill="#D9D9D9"/>
<path d="M357.411 281.388L409.413 289.893L423.5 290.782L461.414 298.397L457.695 301.121L423.5 294.782L403.431 292.693L349.166 284.265L357.411 281.388Z" fill="#D9D9D9"/>
<path d="M346.981 286.604L404.217 295.511L420 296.781L439.5 300.781L461.453 304.418L458.194 307.678L436 304.418L416 299.781L398.465 298.58L338.737 289.482L346.981 286.604Z" fill="#D9D9D9"/>
<path d="M335.669 290.249L395 300.281L410.5 301.781L425.086 304.52L439.672 307.259L436.988 309.56L423 307.281L409.5 304.52L395 304.281L327.424 293.126L335.669 290.249Z" fill="#D9D9D9"/>
<path d="M421.5 275.5H439.5L362 327L343.5 325.5L364.5 312L372 265.5L269 307L269.5 306.5L246.5 305.5L246 300L245.5 299.5C252.705 295.779 254.484 294.181 253.5 293C257.162 291.996 260.267 292.664 265.5 293.5L259.5 292L262.5 291.5L254.5 295C254.5 295 253 294.5 250 295C247 295.5 255.76 293.165 259.728 292.636L254.5 295L262.5 291.5L260.5 290.5L262.5 289.5L263.5 289L263 288.5L259 290.5C254.5 287 254.056 283.164 253.5 280C254.707 280.275 256.892 280.949 258 281L263 288.5L263.5 289L269.5 295L271.5 296L269 297.5C269 297.5 267 297.5 263.5 297.5C260 297.5 258.91 298.005 254.5 299L260 296C260 296 254 298 253.5 298C253 298 254 297 254 297L248.5 300L275.5 304.381L278.5 303L268 300.5L271 299.5L267 298.5L281 300L325.5 277.5L309 274.5L301.5 278.5L286 267L309 253L336 262.5L330 266L324 269L316 270.5L309 274.5L325.5 277.5L332 274.5H339L349 273.5L372 265.5L364.5 312L380.5 300L421.5 275.5Z" fill="#483157" fill-opacity="0.3"/>
<path d="M315.5 270.5L332 274.5L281.5 300L267.5 298.5L315.5 270.5Z" fill="#483157" fill-opacity="0.1"/>
<path d="M311 290.5L388.5 295L407 298L417 302.5L366.5 333L362 328L343.5 326L269 307L311 290.5Z" fill="#483157" fill-opacity="0.1"/>
<path d="M178 179.5L184 169L186.5 164C187.539 163.147 188.082 161.905 189 158.5C187.868 146.199 187.315 141.95 186.5 140L195 153.5L196.5 158.5L219.5 157.5L221 148.5L221.5 149C222.121 154.579 222.842 156.296 224.5 158C224.054 162.468 225.82 164.102 230 166L231.5 169L248 170.5L251.5 176.5C264.549 183.645 270.417 186.212 288.5 186C291.14 185.623 293.861 184.621 300 182L297 190.5C290.199 193.357 286.483 195.192 278 194C274.54 202.905 272.433 207.167 267 207.5L190.5 292.5H180.5L167 270.5L150.5 198.5C163.694 195.263 167.703 191.77 178 179.5Z" fill="url(#paint9_linear_2245_1086)" fill-opacity="0.5"/>
<path d="M102.5 247.5L162 249L150.5 198L176 182L177.5 195L204 178H178.5L186.5 165L192 178C197.622 177.635 204 178 204 178C199.571 169.511 198.444 165.542 196.5 158.5L219.5 157.5C219.194 164.671 219.052 168.728 220.5 178H229.5C228.403 172.547 228.776 170.072 230 166L232 167C242.153 167.97 247.673 167.902 259 168C259.214 175.722 261.21 176.597 263.5 180.5C257 179.248 255.674 178.779 254 178H229.5H220.5H204L177.5 195L180.5 292.5L112.5 277.5C83.5 285 74 285.169 63 277.5C59.1614 274.824 49.6113 266.368 36 267.5C54.5 265.961 54.8681 262.425 93 261C71.2001 260.885 49.8079 257.54 0 247.5H72.5H102.5Z" fill="#483157" fill-opacity="0.5"/>
<path d="M225 161C225 157.5 224 153 233 144.5C242 136 283 125 283 125L370.5 105.5C370.5 105.5 289 176.5 283 179C277 181.5 262.5 181 256.5 179C250.5 177 248.5 171 248.5 171L235 173.5L231.5 170L233 167.5C233 167.5 225 164.5 225 161Z" fill="#483157" fill-opacity="0.5"/>
<path d="M277 43C284 25.5 304.5 10.5 304.5 10.5C298.045 18.7007 299.537 33.885 309.5 76C285.642 73.5278 276.437 75.7105 264.5 83.5C264.5 83.5 270 60.5 277 43Z" fill="url(#paint10_linear_2245_1086)"/>
<path d="M280 76.5L286 90L294.5 98.2381L298.5 75C304.116 75.168 307.604 75.7955 310.5 76.5V93.5L294.5 98.2381L286 90L290.5 99L301 97V121C282.334 123.548 267.964 128.314 237.5 141C230.94 145.921 227.379 148.815 224.5 158C220.935 152.875 221.5 148 221.5 148C223.333 137.369 221.072 135.16 229.5 117C233.426 108.116 238.21 103.217 247 94.5C257.728 86.4608 264.458 82.2928 280 76.5Z" fill="url(#paint11_linear_2245_1086)"/>
<path d="M201 90L209 75L232 112L237 141.5C229.545 146.48 227.38 150.42 224.5 158C223.215 156.066 222.468 157.406 221.5 148.5C213.528 141.763 209.058 137.987 200.5 127.5L201 90Z" fill="url(#paint12_linear_2245_1086)"/>
<rect x="199.5" y="160.086" width="18.2434" height="3" transform="rotate(-3.4168 199.5 160.086)" fill="#483157" fill-opacity="0.5"/>
<rect x="200.5" y="181" width="51" height="1" fill="#CECBCB"/>
<defs>
<filter id="filter0_d_2245_1086" x="221.546" y="240.658" width="33.0417" height="24.918" filterUnits="userSpaceOnUse" color-interpolation-filters="sRGB">
<feFlood flood-opacity="0" result="BackgroundImageFix"/>
<feColorMatrix in="SourceAlpha" type="matrix" values="0 0 0 0 0 0 0 0 0 0 0 0 0 0 0 0 0 0 127 0" result="hardAlpha"/>
<feOffset dx="3" dy="4"/>
<feGaussianBlur stdDeviation="2"/>
<feComposite in2="hardAlpha" operator="out"/>
<feColorMatrix type="matrix" values="0 0 0 0 0 0 0 0 0 0 0 0 0 0 0 0 0 0 0.25 0"/>
<feBlend mode="normal" in2="BackgroundImageFix" result="effect1_dropShadow_2245_1086"/>
<feBlend mode="normal" in="SourceGraphic" in2="effect1_dropShadow_2245_1086" result="shape"/>
</filter>
<filter id="filter1_d_2245_1086" x="198.046" y="130.658" width="55.5001" height="151.5" filterUnits="userSpaceOnUse" color-interpolation-filters="sRGB">
<feFlood flood-opacity="0" result="BackgroundImageFix"/>
<feColorMatrix in="SourceAlpha" type="matrix" values="0 0 0 0 0 0 0 0 0 0 0 0 0 0 0 0 0 0 127 0" result="hardAlpha"/>
<feOffset dx="-3" dy="4"/>
<feGaussianBlur stdDeviation="7.5"/>
<feComposite in2="hardAlpha" operator="out"/>
<feColorMatrix type="matrix" values="0 0 0 0 0 0 0 0 0 0 0 0 0 0 0 0 0 0 0.25 0"/>
<feBlend mode="normal" in2="BackgroundImageFix" result="effect1_dropShadow_2245_1086"/>
<feBlend mode="normal" in="SourceGraphic" in2="effect1_dropShadow_2245_1086" result="shape"/>
</filter>
<filter id="filter2_d_2245_1086" x="176.546" y="236.658" width="33.0417" height="24.918" filterUnits="userSpaceOnUse" color-interpolation-filters="sRGB">
<feFlood flood-opacity="0" result="BackgroundImageFix"/>
<feColorMatrix in="SourceAlpha" type="matrix" values="0 0 0 0 0 0 0 0 0 0 0 0 0 0 0 0 0 0 127 0" result="hardAlpha"/>
<feOffset dx="3" dy="4"/>
<feGaussianBlur stdDeviation="2"/>
<feComposite in2="hardAlpha" operator="out"/>
<feColorMatrix type="matrix" values="0 0 0 0 0 0 0 0 0 0 0 0 0 0 0 0 0 0 0.25 0"/>
<feBlend mode="normal" in2="BackgroundImageFix" result="effect1_dropShadow_2245_1086"/>
<feBlend mode="normal" in="SourceGraphic" in2="effect1_dropShadow_2245_1086" result="shape"/>
</filter>
<filter id="filter3_d_2245_1086" x="164.546" y="117.658" width="55.5001" height="149" filterUnits="userSpaceOnUse" color-interpolation-filters="sRGB">
<feFlood flood-opacity="0" result="BackgroundImageFix"/>
<feColorMatrix in="SourceAlpha" type="matrix" values="0 0 0 0 0 0 0 0 0 0 0 0 0 0 0 0 0 0 127 0" result="hardAlpha"/>
<feOffset dx="-5" dy="-3"/>
<feGaussianBlur stdDeviation="2"/>
<feComposite in2="hardAlpha" operator="out"/>
<feColorMatrix type="matrix" values="0 0 0 0 0 0 0 0 0 0 0 0 0 0 0 0 0 0 0.25 0"/>
<feBlend mode="normal" in2="BackgroundImageFix" result="effect1_dropShadow_2245_1086"/>
<feBlend mode="normal" in="SourceGraphic" in2="effect1_dropShadow_2245_1086" result="shape"/>
</filter>
<filter id="filter4_d_2245_1086" x="197.692" y="254.471" width="33.0417" height="24.918" filterUnits="userSpaceOnUse" color-interpolation-filters="sRGB">
<feFlood flood-opacity="0" result="BackgroundImageFix"/>
<feColorMatrix in="SourceAlpha" type="matrix" values="0 0 0 0 0 0 0 0 0 0 0 0 0 0 0 0 0 0 127 0" result="hardAlpha"/>
<feOffset dx="3" dy="4"/>
<feGaussianBlur stdDeviation="2"/>
<feComposite in2="hardAlpha" operator="out"/>
<feColorMatrix type="matrix" values="0 0 0 0 0 0 0 0 0 0 0 0 0 0 0 0 0 0 0.25 0"/>
<feBlend mode="normal" in2="BackgroundImageFix" result="effect1_dropShadow_2245_1086"/>
<feBlend mode="normal" in="SourceGraphic" in2="effect1_dropShadow_2245_1086" result="shape"/>
</filter>
<filter id="filter5_d_2245_1086" x="217.546" y="256.576" width="26" height="19" filterUnits="userSpaceOnUse" color-interpolation-filters="sRGB">
<feFlood flood-opacity="0" result="BackgroundImageFix"/>
<feColorMatrix in="SourceAlpha" type="matrix" values="0 0 0 0 0 0 0 0 0 0 0 0 0 0 0 0 0 0 127 0" result="hardAlpha"/>
<feOffset dx="3" dy="4"/>
<feGaussianBlur stdDeviation="2"/>
<feComposite in2="hardAlpha" operator="out"/>
<feColorMatrix type="matrix" values="0 0 0 0 0 0 0 0 0 0 0 0 0 0 0 0 0 0 0.25 0"/>
<feBlend mode="normal" in2="BackgroundImageFix" result="effect1_dropShadow_2245_1086"/>
<feBlend mode="normal" in="SourceGraphic" in2="effect1_dropShadow_2245_1086" result="shape"/>
</filter>
<filter id="filter6_d_2245_1086" x="180.546" y="249.658" width="27" height="19" filterUnits="userSpaceOnUse" color-interpolation-filters="sRGB">
<feFlood flood-opacity="0" result="BackgroundImageFix"/>
<feColorMatrix in="SourceAlpha" type="matrix" values="0 0 0 0 0 0 0 0 0 0 0 0 0 0 0 0 0 0 127 0" result="hardAlpha"/>
<feOffset dx="3" dy="4"/>
<feGaussianBlur stdDeviation="2"/>
<feComposite in2="hardAlpha" operator="out"/>
<feColorMatrix type="matrix" values="0 0 0 0 0 0 0 0 0 0 0 0 0 0 0 0 0 0 0.25 0"/>
<feBlend mode="normal" in2="BackgroundImageFix" result="effect1_dropShadow_2245_1086"/>
<feBlend mode="normal" in="SourceGraphic" in2="effect1_dropShadow_2245_1086" result="shape"/>
</filter>
<filter id="filter7_d_2245_1086" x="184.546" y="249.658" width="33.0417" height="24.918" filterUnits="userSpaceOnUse" color-interpolation-filters="sRGB">
<feFlood flood-opacity="0" result="BackgroundImageFix"/>
<feColorMatrix in="SourceAlpha" type="matrix" values="0 0 0 0 0 0 0 0 0 0 0 0 0 0 0 0 0 0 127 0" result="hardAlpha"/>
<feOffset dx="3" dy="4"/>
<feGaussianBlur stdDeviation="2"/>
<feComposite in2="hardAlpha" operator="out"/>
<feColorMatrix type="matrix" values="0 0 0 0 0 0 0 0 0 0 0 0 0 0 0 0 0 0 0.25 0"/>
<feBlend mode="normal" in2="BackgroundImageFix" result="effect1_dropShadow_2245_1086"/>
<feBlend mode="normal" in="SourceGraphic" in2="effect1_dropShadow_2245_1086" result="shape"/>
</filter>
<filter id="filter8_d_2245_1086" x="196.546" y="244.658" width="33.0417" height="24.918" filterUnits="userSpaceOnUse" color-interpolation-filters="sRGB">
<feFlood flood-opacity="0" result="BackgroundImageFix"/>
<feColorMatrix in="SourceAlpha" type="matrix" values="0 0 0 0 0 0 0 0 0 0 0 0 0 0 0 0 0 0 127 0" result="hardAlpha"/>
<feOffset dx="3" dy="4"/>
<feGaussianBlur stdDeviation="2"/>
<feComposite in2="hardAlpha" operator="out"/>
<feColorMatrix type="matrix" values="0 0 0 0 0 0 0 0 0 0 0 0 0 0 0 0 0 0 0.25 0"/>
<feBlend mode="normal" in2="BackgroundImageFix" result="effect1_dropShadow_2245_1086"/>
<feBlend mode="normal" in="SourceGraphic" in2="effect1_dropShadow_2245_1086" result="shape"/>
</filter>
<filter id="filter9_d_2245_1086" x="171.588" y="257.576" width="26" height="21" filterUnits="userSpaceOnUse" color-interpolation-filters="sRGB">
<feFlood flood-opacity="0" result="BackgroundImageFix"/>
<feColorMatrix in="SourceAlpha" type="matrix" values="0 0 0 0 0 0 0 0 0 0 0 0 0 0 0 0 0 0 127 0" result="hardAlpha"/>
<feOffset dx="3" dy="4"/>
<feGaussianBlur stdDeviation="2"/>
<feComposite in2="hardAlpha" operator="out"/>
<feColorMatrix type="matrix" values="0 0 0 0 0 0 0 0 0 0 0 0 0 0 0 0 0 0 0.25 0"/>
<feBlend mode="normal" in2="BackgroundImageFix" result="effect1_dropShadow_2245_1086"/>
<feBlend mode="normal" in="SourceGraphic" in2="effect1_dropShadow_2245_1086" result="shape"/>
</filter>
<filter id="filter10_d_2245_1086" x="183.546" y="263.658" width="33.0417" height="24.918" filterUnits="userSpaceOnUse" color-interpolation-filters="sRGB">
<feFlood flood-opacity="0" result="BackgroundImageFix"/>
<feColorMatrix in="SourceAlpha" type="matrix" values="0 0 0 0 0 0 0 0 0 0 0 0 0 0 0 0 0 0 127 0" result="hardAlpha"/>
<feOffset dx="3" dy="4"/>
<feGaussianBlur stdDeviation="2"/>
<feComposite in2="hardAlpha" operator="out"/>
<feColorMatrix type="matrix" values="0 0 0 0 0 0 0 0 0 0 0 0 0 0 0 0 0 0 0.25 0"/>
<feBlend mode="normal" in2="BackgroundImageFix" result="effect1_dropShadow_2245_1086"/>
<feBlend mode="normal" in="SourceGraphic" in2="effect1_dropShadow_2245_1086" result="shape"/>
</filter>
<filter id="filter11_g_2245_1086" x="154.046" y="196.658" width="127.5" height="92.8047" filterUnits="userSpaceOnUse" color-interpolation-filters="sRGB">
<feFlood flood-opacity="0" result="BackgroundImageFix"/>
<feBlend mode="normal" in="SourceGraphic" in2="BackgroundImageFix" result="shape"/>
<feTurbulence type="fractalNoise" baseFrequency="0.99900001287460327 0.99900001287460327" numOctaves="3" seed="3222" />
<feDisplacementMap in="shape" scale="8" xChannelSelector="R" yChannelSelector="G" result="displacedImage" width="100%" height="100%" />
<feMerge result="effect1_texture_2245_1086">
<feMergeNode in="displacedImage"/>
</feMerge>
</filter>
<linearGradient id="paint0_linear_2245_1086" x1="235.067" y1="240.658" x2="235.067" y2="257.576" gradientUnits="userSpaceOnUse">
<stop stop-color="#A8A8A8"/>
<stop offset="1" stop-color="#424242"/>
</linearGradient>
<linearGradient id="paint1_linear_2245_1086" x1="190.067" y1="236.658" x2="190.067" y2="253.576" gradientUnits="userSpaceOnUse">
<stop stop-color="#A8A8A8"/>
<stop offset="1" stop-color="#424242"/>
</linearGradient>
<linearGradient id="paint2_linear_2245_1086" x1="211.213" y1="254.471" x2="211.213" y2="271.388" gradientUnits="userSpaceOnUse">
<stop stop-color="#A8A8A8"/>
<stop offset="1" stop-color="#424242"/>
</linearGradient>
<linearGradient id="paint3_linear_2245_1086" x1="227.546" y1="256.576" x2="227.546" y2="267.576" gradientUnits="userSpaceOnUse">
<stop stop-color="#A8A8A8"/>
<stop offset="1" stop-color="#424242"/>
</linearGradient>
<linearGradient id="paint4_linear_2245_1086" x1="191.046" y1="249.658" x2="191.046" y2="260.658" gradientUnits="userSpaceOnUse">
<stop stop-color="#A8A8A8"/>
<stop offset="1" stop-color="#424242"/>
</linearGradient>
<linearGradient id="paint5_linear_2245_1086" x1="198.067" y1="249.658" x2="198.067" y2="266.576" gradientUnits="userSpaceOnUse">
<stop stop-color="#A8A8A8"/>
<stop offset="1" stop-color="#424242"/>
</linearGradient>
<linearGradient id="paint6_linear_2245_1086" x1="210.067" y1="244.658" x2="210.067" y2="261.576" gradientUnits="userSpaceOnUse">
<stop stop-color="#A8A8A8"/>
<stop offset="1" stop-color="#424242"/>
</linearGradient>
<linearGradient id="paint7_linear_2245_1086" x1="181.588" y1="257.576" x2="181.588" y2="270.576" gradientUnits="userSpaceOnUse">
<stop stop-color="#A8A8A8"/>
<stop offset="1" stop-color="#424242"/>
</linearGradient>
<linearGradient id="paint8_linear_2245_1086" x1="197.067" y1="263.658" x2="197.067" y2="280.576" gradientUnits="userSpaceOnUse">
<stop stop-color="#A8A8A8"/>
<stop offset="1" stop-color="#424242"/>
</linearGradient>
<linearGradient id="paint9_linear_2245_1086" x1="210" y1="197" x2="313.5" y2="196" gradientUnits="userSpaceOnUse">
<stop stop-color="#483157"/>
<stop offset="1" stop-color="#9C6ABD" stop-opacity="0"/>
</linearGradient>
<linearGradient id="paint10_linear_2245_1086" x1="281.5" y1="49" x2="327" y2="57.5" gradientUnits="userSpaceOnUse">
<stop stop-color="#483157" stop-opacity="0.3"/>
<stop offset="1" stop-color="#9C6ABD" stop-opacity="0.1"/>
</linearGradient>
<linearGradient id="paint11_linear_2245_1086" x1="254.5" y1="119.5" x2="320.5" y2="98" gradientUnits="userSpaceOnUse">
<stop stop-color="#483157" stop-opacity="0.3"/>
<stop offset="1" stop-color="#9C6ABD" stop-opacity="0.1"/>
</linearGradient>
<linearGradient id="paint12_linear_2245_1086" x1="218.5" y1="150.5" x2="248" y2="75" gradientUnits="userSpaceOnUse">
<stop stop-color="#483157" stop-opacity="0.5"/>
<stop offset="1" stop-color="#9C6ABD" stop-opacity="0.2"/>
</linearGradient>
</defs>
</svg>
