<svg width="42" height="16" viewBox="0 0 42 16" fill="none" xmlns="http://www.w3.org/2000/svg">
<path d="M20.1349 4C20.0155 4.07837 19.614 4.88018 19.1721 5.7447C18.5616 6.93904 18.4083 8.45399 18.0665 9.60185C17.6439 11.3924 17.3629 12.2762 17.1622 12.838C17.0808 13.0816 17.041 13.2408 17 13.4047" stroke="black" stroke-width="2" stroke-linecap="round"/>
<path d="M18.3263 9.42534C18.4456 9.22519 19.0063 8.90446 19.6502 8.60242C19.9545 8.45966 20.294 8.50054 20.5749 8.62051C21.1084 8.84831 21.0585 9.74365 21.3394 10.2675C21.6288 10.8073 21.6613 11.5523 21.6426 12.6567C21.6314 13.3219 20.9403 13.7636 20.3784 14.0065C20.075 14.1377 19.6152 14.1277 19.1534 14.068C18.6494 13.6068 18.2467 13.1643 18.0863 12.9238C18.0055 12.8026 17.926 12.6832 17.7234 12.4397" stroke="black" stroke-width="2" stroke-linecap="round"/>
<path d="M28.3787 9.83982C28.5379 9.5215 28.5801 9.15857 28.4203 8.77756C28.2397 8.34683 27.777 8.19278 27.4171 8.0722C26.8482 7.88159 26.2506 8.11079 25.8895 8.27115C25.3076 8.52953 24.9641 9.19354 24.5221 9.77711C23.978 10.4957 23.9175 11.6798 24.0772 12.5708C24.1827 13.1593 25.0002 13.375 25.8219 13.5571C26.1939 13.6395 26.7992 13.5776 27.1464 13.498C27.7746 12.9759 28.1761 12.4948 28.4583 11.6135C28.4993 11.1734 28.4993 10.4571 28.3787 9.59867" stroke="black" stroke-width="2" stroke-linecap="round"/>
<path d="M31.5631 8C31.5233 8.27973 31.4425 9.08034 31.3026 9.86589C31.1255 10.8606 31.0012 11.5738 31 12.3979C30.9995 12.7227 31.2809 12.9423 31.4612 13.163C31.8198 13.6019 32.5253 13.585 33.7286 13.6272C34.1878 13.6433 34.4158 13.3065 34.5762 13.0659C34.9569 12.4949 35.0573 11.3809 35.3003 10.655C35.5109 10.0257 35.6216 9.36972 35.7627 8.9447C36.0216 8.16461 35.5034 10.4091 35.2816 11.0318C34.9801 11.7366 34.739 12.1779 34.5985 12.5589C34.5376 12.741 34.4978 12.9001 34.3363 13.1847" stroke="black" stroke-width="2" stroke-linecap="round"/>
<path d="M40.5564 6C40.4768 6.27973 39.8378 7.87613 39.4321 9.07161C39.1135 10.0104 38.7888 10.5384 38.5278 11.2823C38.2997 11.9322 38.1859 12.5881 38.2046 13.2923C38.3837 13.5141 38.626 13.6757 39.0655 13.7963C39.3856 13.8373 39.9029 13.8373 40.4358 13.8373" stroke="black" stroke-width="2" stroke-linecap="round"/>
<path d="M38 10.2796C38.1591 10.2796 38.3182 10.2796 38.5593 10.2796C38.8003 10.2796 39.1185 10.2796 39.4415 10.2399C39.7645 10.2001 40.0827 10.1205 40.8927 10.0386" stroke="black" stroke-width="2" stroke-linecap="round"/>
<path d="M1 13.0781C1.73309 13.0781 3.2129 12.8531 4.03719 12.3979C4.81875 11.9663 5.59969 11.4892 6.45211 10.7229C7.24725 10.0081 7.81599 9.33088 8.63944 8.5637C9.91153 7.37853 10.7688 6.54857 11.8505 5.46684C12.5637 4.75365 12.9885 4.04584 13.6133 3.22154C14.1862 2.46586 14.8059 1.94205 15.3753 1.31722C15.5381 1.13857 15.7708 0.977105 15.9149 1.00268C16.6394 1.13129 16.0027 2.84221 15.8331 3.86854C15.68 4.79439 15.3787 5.68591 15.123 6.5963C14.8648 7.5153 14.2433 8.35571 13.9577 9.46557C13.7169 10.4016 13.6159 11.3119 13.3048 12.0808C13.1624 12.5053 13.0482 12.9622 12.9348 13.4157C12.8777 13.6442 12.8214 13.8692 12.593 14.442" stroke="black" stroke-width="2" stroke-linecap="round"/>
<path d="M7.30786 10.6913C8.15517 10.6913 9.63328 10.4663 10.7406 10.2088C11.7848 10.1798 12.6475 10.1236 13.1291 10.0383C13.3857 10.0094 13.667 10.0094 13.9568 9.83887" stroke="black" stroke-width="2" stroke-linecap="round"/>
</svg>
