<svg width="58" height="25" viewBox="0 0 58 25" fill="none" xmlns="http://www.w3.org/2000/svg">
<path d="M2 0L12 4L27 2L43 0H58L57 11L57.5 14L57 16.5V19.5L56 23L43 21.5L27 17.5L12 24.5L2 23L0 7.5L2 0Z" fill="#EAEAEA"/>
<path d="M0 7.5L11 12L12 20L13.5 13.5L12.5 12L30 9L29.5 10.5L28.5 12.5L33 19L33.5 13.5L34.5 8L36 11.5L37.5 10L35.5 7L30 7.5L42 4.5L57.5 5.5L57 10.5L37.5 10L36 11.5L39.5 15L57.5 14L57 16H39L43.5 18L57 19L56 23L43 21.5L33 19L28.5 12.5L27.5 14.5L29 18L27 17.5L14 23.5L17 17L26.5 14.5L27.25 13.75L28 10.5L23 12.5L13.5 13.5L12 20V24.5L2 23L0 7.5Z" fill="#C2C2C2" fill-opacity="0.5"/>
</svg>
