<svg width="35" height="14" viewBox="0 0 35 14" fill="none" xmlns="http://www.w3.org/2000/svg">
<path d="M3.24121 5.46045C3.40999 5.74346 4.54031 6.08443 5.9076 6.08613C6.19402 6.02987 6.41906 5.91735 6.7319 5.85939C7.04474 5.80142 7.43856 5.80142 7.84431 5.80142" stroke="black" stroke-width="2" stroke-linecap="round"/>
<path d="M10.0606 1.19824C10.2311 1.47955 9.89355 2.83831 9.52189 4.28999C9.16384 5.68851 8.81267 6.47987 8.49898 7.44567C8.12902 8.24269 7.95854 8.92463 7.84517 9.37813C7.78805 9.60658 7.73179 9.83162 7.67383 10.4044" stroke="black" stroke-width="2" stroke-linecap="round"/>
<path d="M3.38679 1C3.55728 1.2813 3.21972 2.64007 2.84806 4.09175C2.49001 5.49027 2.13884 6.28163 1.82515 7.24743C1.45519 8.04445 1.28471 8.72639 1.17134 9.17988C1.11423 9.40833 1.05797 9.63337 1 10.2062" stroke="black" stroke-width="2" stroke-linecap="round"/>
<path d="M16.0277 6.9947C15.9715 6.59917 15.5197 5.69219 14.9503 5.00769C14.6746 4.67632 13.9291 4.77839 13.2199 4.80652C12.2827 4.84369 11.769 5.68537 11.284 6.33833C10.7578 7.04672 10.7427 8.29379 11.082 9.34995C11.3404 10.1543 12.1032 10.6294 12.8141 11.0565C13.1979 11.2871 13.7518 11.2568 14.2624 11.2006C14.6921 11.1532 15.0031 10.8033 15.3151 10.5485C15.743 9.83839 15.9698 8.93141 16.1692 7.96476C16.1982 7.68005 16.1982 7.34249 15.8573 6.9947" stroke="black" stroke-width="2" stroke-linecap="round"/>
<path d="M18.8524 6.66455C18.8524 7.34308 18.6274 8.47851 18.37 9.44516C18.341 9.72987 18.341 10.0674 18.2847 10.3257C18.2285 10.584 18.1159 10.7528 18 11.2676" stroke="black" stroke-width="2" stroke-linecap="round"/>
<path d="M19.0227 8.02849C19.362 7.74548 20.1547 7.06695 20.754 6.35432C20.8839 6.19978 21.0651 6.0986 21.2927 6.04063C21.5203 5.98267 21.8016 5.98267 22.0309 6.06706C22.6592 6.71916 22.8296 7.4011 22.9149 8.02338C22.9439 8.42061 22.9439 8.98321 22.9439 9.56286" stroke="black" stroke-width="2" stroke-linecap="round"/>
<path d="M23.2849 7.34623C23.3395 7.23371 24.1339 6.78022 24.9863 6.63616C25.2133 6.59781 25.4398 6.55177 25.612 6.60718C26.3476 6.84386 26.4082 8.02476 26.6656 8.90532C26.6946 9.4432 26.7509 9.95806 26.8361 10.6085C26.8651 11.0338 26.8651 11.6527 26.8651 12.2903" stroke="black" stroke-width="2" stroke-linecap="round"/>
<path d="M29.5925 8.69741C30.3256 8.69741 31.918 8.58489 32.8002 8.15953C33.2351 7.94989 33.3995 7.3932 33.4847 6.82634C33.5274 6.5425 33.5137 6.25948 33.4012 6.14269C32.9133 5.63635 32.1532 5.29112 31.3289 5.03198C30.5644 4.79164 30.0494 5.96624 29.3675 6.53566C28.7 7.09306 29.0811 9.19523 29.4203 10.3997C29.9881 10.97 30.6137 11.1967 31.3195 11.3672C31.8566 11.4252 32.7567 11.4252 33.8547 10.9137" stroke="black" stroke-width="2" stroke-linecap="round"/>
</svg>
