<svg width="49" height="17" viewBox="0 0 49 17" fill="none" xmlns="http://www.w3.org/2000/svg">
<path d="M9.67334 10.5476C9.91328 10.1883 10.3944 9.30572 10.7772 8.54067C11.0925 7.91064 11.5205 7.41512 12.0625 6.85204C12.6057 6.48911 13.1676 6.16839 13.97 5.98632C14.2515 5.96582 14.6096 5.96582 14.9786 5.96582" stroke="black" stroke-width="2" stroke-linecap="round"/>
<path d="M18.4753 7.29241C18.1956 7.25262 17.395 7.17184 16.3689 7.53175C15.623 7.79338 15.3428 8.41616 14.9998 8.87796C14.811 9.13216 14.8581 9.5809 14.8979 10.0023C14.9284 10.3256 15.2186 10.5069 15.4791 10.6474C16.0505 10.9556 16.7439 10.9892 17.788 10.9904C18.5413 10.9913 19.0758 10.6299 19.5388 10.2881C20.0017 9.94631 20.1223 9.265 20.3635 8.56145C20.5261 8.08709 20.3249 7.65534 20.1248 7.45459C19.845 7.33341 19.5219 7.25262 19.2012 7.17244C19.0396 7.13205 18.8804 7.09226 18.4753 7.05127" stroke="black" stroke-width="2" stroke-linecap="round"/>
<path d="M23.1775 7.41308C23.3776 7.29371 23.778 6.8922 24.241 6.15007C24.4273 5.85139 24.5834 5.60568 24.7239 5.5044C25.2081 5.15523 24.7064 6.80779 24.5243 7.51074C24.3559 8.16114 24.1831 8.81655 23.922 9.46041C23.6803 10.0566 23.3801 10.5456 23.0183 11.1484C22.6072 11.8338 22.0948 12.3132 21.5118 12.8371C20.9904 13.3056 20.3271 13.6009 19.7032 13.9228C19.0956 14.2363 18.2774 14.3653 17.6136 14.5064C16.796 14.6802 14.3949 14.8886 11.8755 14.9887C6.90484 15.1862 6.3406 14.6885 5.81671 14.3075C5.57617 14.1266 5.33381 13.9253 5.09327 13.6847C4.97209 13.5635 4.85272 13.4442 4.72974 13.3212" stroke="black" stroke-width="2" stroke-linecap="round"/>
<path d="M39.4956 7.37219C39.4956 7.45177 39.4956 7.33361 39.4558 7.03278C39.3818 6.47391 38.654 6.24844 37.9715 6.06638C36.9601 5.79656 36.1243 6.40519 35.6384 6.88809C35.1921 7.33167 35.1959 8.1728 35.0548 9.0355C34.8971 10.0002 35.1139 10.7471 35.2743 11.0075C35.4527 11.2973 35.636 11.5513 35.8765 11.7116C36.8767 11.954 38.4876 11.8744 39.0916 11.5736C39.2134 11.4729 39.293 11.3535 39.4956 11.11" stroke="black" stroke-width="2" stroke-linecap="round"/>
<path d="M45.7733 2C45.7335 2.31952 45.414 3.75796 45.071 4.77078C44.8564 5.40438 44.6496 5.97652 44.4476 6.81932C44.2286 7.73334 44.0467 8.38799 43.9448 8.99086C43.8297 9.67222 43.7645 10.3967 43.8031 11.0406C43.8491 11.808 44.8859 11.846 45.669 11.9871C46.4075 12.0076 46.9778 11.928 47.2184 11.7677C47.3396 11.6869 47.4589 11.6073 47.8231 11.2842" stroke="black" stroke-width="2" stroke-linecap="round"/>
<path d="M43 7.06396C43.0796 7.06396 43.3195 7.10375 44.0387 7.16404C44.559 7.18454 45.3946 7.18454 45.9046 7.16464C46.4146 7.14475 46.5738 7.10496 46.8584 7.06396" stroke="black" stroke-width="2" stroke-linecap="round"/>
<path d="M23.7817 3.14453H24.3846" stroke="black" stroke-width="2" stroke-linecap="round"/>
<path d="M28.5925 9.69741C29.3256 9.69741 30.918 9.58489 31.8002 9.15953C32.2351 8.94989 32.3995 8.3932 32.4847 7.82634C32.5274 7.5425 32.5137 7.25948 32.4012 7.14269C31.9133 6.63635 31.1532 6.29112 30.3289 6.03198C29.5644 5.79164 29.0494 6.96624 28.3675 7.53566C27.7 8.09306 28.0811 10.1952 28.4203 11.3997C28.9881 11.97 29.6137 12.1967 30.3195 12.3672C30.8566 12.4252 31.7567 12.4252 32.8547 11.9137" stroke="black" stroke-width="2" stroke-linecap="round"/>
<path d="M7.00002 1C6.51893 1.8826 6.10564 1.85998 5.86389 2.6847C5.54994 3.75572 5.10005 4.67417 4.63886 5.4181C4.28194 5.99384 4.13546 6.60334 3.85453 7.12724C3.56442 7.66824 3.21187 8.2118 2.88994 8.81466C2.56751 9.41847 2.32686 9.97941 2.04593 10.5033C1.76378 11.026 1.5 11.5 1 11.5" stroke="black" stroke-width="2" stroke-linecap="round"/>
<path d="M6.98811 1.10011C7.26784 1.02053 7.60144 1.3408 9.22617 1.3396C9.70723 1.33924 10 2.5 10 2.5C10 2.5 10 2.5 10.5 3.99986C10.9601 5.38005 10.12 6.19903 10 6.49986C9.72902 7.17935 9.34221 7.41033 8.5 7.69247C7.36576 8.07245 6.82895 7.81244 6.54802 7.69247C6.1453 7.29036 5.82337 7.00942 5.66301 6.76888C5.58222 6.6477 5.50264 6.52833 5.42065 6.1642" stroke="black" stroke-width="2" stroke-linecap="round"/>
</svg>
